# xmcd
#
# Track frame offsets:
#	150
#	16115
#	30321
#	44748
#	61280
#	79120
#	93887
#	110274
#	124575
#	139208
#	152774
#	170585
#
# Disc length: 2509 seconds
#
# Revision: 1
# Processed by: cddbd v1.5.2PL0 Copyright (c) Steve Scherf et al.
# Submitted via: audiograbber 1.83.01
#
DISCID=9009cb0c
DTITLE=George Britt - Another Shot
DYEAR=2003
DGENRE=Country
TTITLE0=Nights Like These
TTITLE1=Go Brain Go
TTITLE2=Every Time I Turn Around
TTITLE3=I Remember Texas
TTITLE4=Broken Home
TTITLE5=Echoes
TTITLE6=You Can't Keep a Good Memory Down
TTITLE7=More Time to Play
TTITLE8=Ain't That the Way Lonely Goes
TTITLE9=Here You Go
TTITLE10=The Bottom
TTITLE11=An Honest Man
EXTD=
EXTT0=
EXTT1=
EXTT2=
EXTT3=
EXTT4=
EXTT5=
EXTT6=
EXTT7=
EXTT8=
EXTT9=
EXTT10=
EXTT11=
PLAYORDER=
